<svg width="114" height="110" viewBox="0 0 114 110" fill="none" xmlns="http://www.w3.org/2000/svg">
<path d="M110.859 3.08769C108.847 1.11064 106.119 0 103.275 0C100.43 0 97.7019 1.11064 95.6901 3.08769L55 43.0881V58H70.169L110.859 17.9995C112.87 16.0219 114 13.34 114 10.5436C114 7.74723 112.87 5.06533 110.859 3.08769Z" fill="#072C6C"/>
<path fill-rule="evenodd" clip-rule="evenodd" d="M0 15.7143C0 11.5466 1.65561 7.54961 4.60261 4.60261C7.54961 1.65561 11.5466 0 15.7143 0H47.1429C49.2267 0 51.2252 0.827805 52.6987 2.30131C54.1722 3.77481 55 5.7733 55 7.85714C55 9.94099 54.1722 11.9395 52.6987 13.413C51.2252 14.8865 49.2267 15.7143 47.1429 15.7143H15.7143V94.2857H94.2857V62.8571C94.2857 60.7733 95.1135 58.7748 96.587 57.3013C98.0605 55.8278 100.059 55 102.143 55C104.227 55 106.225 55.8278 107.699 57.3013C109.172 58.7748 110 60.7733 110 62.8571V94.2857C110 98.4534 108.344 102.45 105.397 105.397C102.45 108.344 98.4534 110 94.2857 110H15.7143C11.5466 110 7.54961 108.344 4.60261 105.397C1.65561 102.45 0 98.4534 0 94.2857V15.7143Z" fill="#072C6C"/>
</svg>
