<svg width="121" height="119" viewBox="0 0 121 119" fill="none" xmlns="http://www.w3.org/2000/svg">
<path fill-rule="evenodd" clip-rule="evenodd" d="M60.5 119C76.5456 119 91.934 112.731 103.28 101.573C114.626 90.4144 121 75.2804 121 59.5C121 43.7196 114.626 28.5856 103.28 17.4271C91.934 6.26873 76.5456 0 60.5 0C44.4544 0 29.066 6.26873 17.72 17.4271C6.37409 28.5856 0 43.7196 0 59.5C0 75.2804 6.37409 90.4144 17.72 101.573C29.066 112.731 44.4544 119 60.5 119ZM88.5342 49.8833C89.9118 48.4806 90.674 46.6019 90.6568 44.6518C90.6396 42.7017 89.8442 40.8363 88.4421 39.4573C87.0399 38.0783 85.1431 37.2961 83.1603 37.2792C81.1774 37.2622 79.2671 38.0119 77.8408 39.3667L52.9375 63.8584L43.1592 54.2417C41.7329 52.8869 39.8226 52.1372 37.8397 52.1542C35.8568 52.1711 33.9601 52.9533 32.5579 54.3323C31.1558 55.7113 30.3604 57.5767 30.3432 59.5268C30.326 61.4769 31.0882 63.3556 32.4658 64.7583L47.5908 79.6333C49.009 81.0276 50.9322 81.8109 52.9375 81.8109C54.9428 81.8109 56.866 81.0276 58.2842 79.6333L88.5342 49.8833Z" fill="#072C6C"/>
</svg>
