<svg width="117" height="119" viewBox="0 0 117 119" fill="none" xmlns="http://www.w3.org/2000/svg">
<path d="M36.5625 0C34.6231 0 32.7631 0.895533 31.3918 2.48959C30.0204 4.08365 29.25 6.24566 29.25 8.5C29.25 10.7543 30.0204 12.9163 31.3918 14.5104C32.7631 16.1045 34.6231 17 36.5625 17H80.4375C82.3769 17 84.2369 16.1045 85.6082 14.5104C86.9796 12.9163 87.75 10.7543 87.75 8.5C87.75 6.24566 86.9796 4.08365 85.6082 2.48959C84.2369 0.895533 82.3769 0 80.4375 0H36.5625ZM14.625 34C14.625 31.7457 15.3954 29.5837 16.7668 27.9896C18.1381 26.3955 19.9981 25.5 21.9375 25.5H95.0625C97.0019 25.5 98.8619 26.3955 100.233 27.9896C101.605 29.5837 102.375 31.7457 102.375 34C102.375 36.2543 101.605 38.4163 100.233 40.0104C98.8619 41.6045 97.0019 42.5 95.0625 42.5H21.9375C19.9981 42.5 18.1381 41.6045 16.7668 40.0104C15.3954 38.4163 14.625 36.2543 14.625 34ZM0 68C0 63.4913 1.54084 59.1673 4.28356 55.9792C7.02628 52.7911 10.7462 51 14.625 51H102.375C106.254 51 109.974 52.7911 112.716 55.9792C115.459 59.1673 117 63.4913 117 68V102C117 106.509 115.459 110.833 112.716 114.021C109.974 117.209 106.254 119 102.375 119H14.625C10.7462 119 7.02628 117.209 4.28356 114.021C1.54084 110.833 0 106.509 0 102V68Z" fill="#072C6C"/>
</svg>
