<svg width="134" height="134" viewBox="0 0 134 134" fill="none" xmlns="http://www.w3.org/2000/svg">
<path d="M51.6042 99.6049L46.6146 119.43L39.9931 126.031L92.8819 126.114L86.2812 119.493L81.3541 99.6518M7.02088 73.0902L126.021 73.2776M20.2014 99.5555L112.757 99.7012C116.264 99.7067 119.629 98.319 122.112 95.8432C124.596 93.3675 125.994 90.0066 126 86.4998L126.104 20.3888C126.11 16.8821 124.722 13.5167 122.246 11.0332C119.77 8.54965 116.409 7.1513 112.903 7.14578L20.3472 7.00001C16.8405 6.99449 13.4751 8.38224 10.9916 10.858C8.50804 13.3337 7.1097 16.6946 7.10418 20.2014L7.00006 86.3124C6.99453 89.8192 8.38229 93.1845 10.858 95.668C13.3338 98.1516 16.6947 99.5499 20.2014 99.5555Z" stroke="#072C6C" stroke-width="14" stroke-linecap="round" stroke-linejoin="round"/>
</svg>
