<svg width="525" height="119" viewBox="0 0 525 119" fill="none" xmlns="http://www.w3.org/2000/svg">
<path d="M50.5845 104.885C50.9219 103.492 52.0845 102.576 53.1792 102.841C54.2779 103.103 54.8899 104.455 54.5485 105.855C54.2125 107.245 53.0459 108.16 51.9499 107.897C50.8552 107.631 50.2445 106.279 50.5845 104.885ZM55.9165 106.187C56.4379 104.053 55.3539 101.961 53.5045 101.515C51.6539 101.068 49.7312 102.421 49.2125 104.556C48.6952 106.681 49.7792 108.769 51.6299 109.219C51.8779 109.283 52.1272 109.304 52.3765 109.304C50.9392 111.1 48.8699 112.7 48.8699 112.7L50.5579 113.113C54.9699 109.173 55.6379 107.096 55.7059 106.837C55.7939 106.628 55.8659 106.404 55.9165 106.187Z" fill="#082D6C"/>
<path d="M67.9563 109.411C68.0323 110.849 67.1816 112.055 66.0576 112.117C64.9336 112.175 63.9576 111.058 63.8829 109.634C63.8069 108.194 64.6549 106.982 65.7803 106.923C66.9043 106.867 67.8776 107.979 67.9563 109.411ZM62.4736 109.707C62.5896 111.89 64.2269 113.579 66.1309 113.482C68.0349 113.377 69.4829 111.525 69.3629 109.335C69.2469 107.153 67.6123 105.463 65.7056 105.561C65.4523 105.577 65.2043 105.622 64.9709 105.698C65.8269 103.563 67.3496 101.434 67.3496 101.434L65.6096 101.529C62.5203 106.569 62.4803 108.741 62.4883 109.023C62.4683 109.241 62.4629 109.467 62.4736 109.707Z" fill="#082D6C"/>
<path d="M75.0533 100.728L74.508 99.4985L79.5653 97.1532L80.3187 98.7785L81.932 108.694L80.4107 109.4L78.808 98.9905L75.0533 100.728Z" fill="#082D6C"/>
<path d="M40.552 98.1497L40.052 99.3644L41.7587 100.071L37.9653 109.266L39.3947 109.86L43.692 99.4431L40.552 98.1497Z" fill="#082D6C"/>
<path d="M50.5807 104.879C50.922 103.483 52.0833 102.568 53.1793 102.836C54.274 103.103 54.8887 104.45 54.5487 105.84C54.2127 107.239 53.046 108.155 51.95 107.884C50.8553 107.622 50.2447 106.279 50.5807 104.879ZM55.918 106.179C56.438 104.047 55.3567 101.962 53.5047 101.51C51.654 101.063 49.7313 102.419 49.2127 104.55C48.6953 106.675 49.7793 108.766 51.63 109.212C51.8753 109.272 52.1247 109.299 52.3767 109.299C50.938 111.095 48.87 112.695 48.87 112.695L50.558 113.108C54.97 109.168 55.6367 107.094 55.706 106.831C55.794 106.622 55.8633 106.402 55.918 106.179Z" fill="#082D6C"/>
<path d="M59.0787 115.66C27.828 115.66 2.49066 90.3227 2.49066 59.076C2.49066 27.824 27.828 2.49335 59.0787 2.49335C90.3333 2.49335 115.665 27.824 115.665 59.076C115.665 90.3227 90.3333 115.66 59.0787 115.66ZM59.0787 7.62939e-06C26.452 7.62939e-06 0 26.448 0 59.076C0 91.7027 26.452 118.151 59.0787 118.151C91.7093 118.151 118.16 91.7027 118.16 59.076C118.16 26.448 91.7093 7.62939e-06 59.0787 7.62939e-06Z" fill="#082D6C"/>
<path d="M59.0787 98.1445C80.656 98.1445 98.1494 80.6512 98.1494 59.0752C98.1494 37.5032 80.656 20.0085 59.0787 20.0085C37.5013 20.0085 20.012 37.5032 20.012 59.0752C20.012 80.6512 37.5013 98.1445 59.0787 98.1445ZM18.2867 59.0752C18.2867 36.5458 36.552 18.2845 59.0787 18.2845C81.6107 18.2845 99.8734 36.5458 99.8734 59.0752C99.8734 81.5978 81.6107 99.8592 59.0787 99.8592C36.552 99.8592 18.2867 81.5978 18.2867 59.0752Z" fill="#082D6C"/>
<path d="M34.983 27.3977L42.8364 34.8937L40.0004 55.047H56.1697L58.4257 38.9924H66.4457L64.1857 55.047H79.2924L83.1764 27.3977H34.983Z" fill="#082D6C"/>
<path d="M75.3268 83.2591L78.1628 63.1004H63.0561L60.7961 79.1658H52.7774L55.0361 63.1004H38.8708L34.9814 90.7471H83.1761L75.3268 83.2591Z" fill="#082D6C"/>
<path d="M29.4212 95.6145C29.8279 95.9639 30.0532 96.3772 30.0945 96.8679C30.1345 97.3519 29.9839 97.8012 29.6359 98.2079C29.2892 98.6079 28.8785 98.8372 28.3852 98.8759C27.8932 98.9159 27.4425 98.7639 27.0385 98.4199C26.6345 98.0812 26.4105 97.6612 26.3732 97.1639C26.3385 96.6759 26.4892 96.2265 26.8345 95.8239C27.1772 95.4199 27.5959 95.1959 28.0812 95.1559C28.5679 95.1239 29.0172 95.2705 29.4212 95.6145Z" fill="#082D6C"/>
<path d="M88.7669 95.7122C89.1749 95.3628 89.6189 95.2122 90.1069 95.2535C90.5963 95.2908 91.0096 95.5122 91.3549 95.9135C91.7016 96.3215 91.8536 96.7682 91.8189 97.2588C91.7816 97.7508 91.5589 98.1668 91.1549 98.5162C90.7469 98.8588 90.3016 99.0108 89.8096 98.9708C89.3203 98.9295 88.9016 98.7082 88.5563 98.2975C88.2096 97.8962 88.0563 97.4522 88.0976 96.9615C88.1376 96.4802 88.3643 96.0588 88.7669 95.7122Z" fill="#082D6C"/>
<path d="M17.3124 70.362L6.14171 72.314L4.71771 64.1607L5.38571 64.0433L6.04838 63.9287L7.20705 70.5713L10.6497 69.9647L9.58971 63.8967L10.2524 63.7793L10.9164 63.666L11.9777 69.7393L15.7204 69.0807L14.5457 62.3487L15.2097 62.2327L15.8724 62.1167L17.3124 70.362Z" fill="#082D6C"/>
<path d="M12.5827 49.638C13.9733 49.7873 15.02 50.2953 15.7213 51.1566C16.4213 52.026 16.7 53.1486 16.5547 54.5393C16.4 55.9846 15.908 57.05 15.0733 57.726C14.236 58.4006 13.096 58.6633 11.6427 58.506L4.49866 57.7486L4.58132 56.9926L4.66399 56.2286L11.6947 56.974C12.744 57.0833 13.5667 56.9206 14.1653 56.478C14.76 56.0433 15.1093 55.3486 15.216 54.3993C15.3133 53.4446 15.116 52.6953 14.628 52.1473C14.1307 51.594 13.364 51.2633 12.312 51.1513L5.27999 50.406L5.35999 49.6486L5.44266 48.8793L12.5827 49.638Z" fill="#082D6C"/>
<path d="M17.7017 46.6665L7.10437 42.6265L7.37637 41.9092L7.65104 41.1945L16.9844 44.7572L19.0297 39.3999L19.6617 39.6439L20.2884 39.8825L17.7017 46.6665Z" fill="#082D6C"/>
<path d="M14.5104 27.8236L14.929 27.1876L15.3597 26.5489L22.1437 31.0742C23.0717 31.6956 23.6304 32.4062 23.821 33.2116C24.013 34.0142 23.821 34.8529 23.245 35.7142C22.657 36.5996 21.9677 37.1169 21.1757 37.2862C20.3837 37.4502 19.5904 37.2342 18.785 36.6462L18.1264 36.2089L18.9277 35.0089L19.581 35.4462C20.081 35.7782 20.5504 35.9116 20.9864 35.8409C21.4224 35.7782 21.797 35.5169 22.0984 35.0569C22.4064 34.5956 22.489 34.1196 22.3424 33.6342C22.1944 33.1449 21.8437 32.7156 21.2837 32.3422L14.5104 27.8236Z" fill="#082D6C"/>
<path d="M19.2044 22.0474L19.7271 21.4941L20.2604 20.9408L28.4577 28.7728L27.9337 29.3248L27.3991 29.8808L19.2044 22.0474Z" fill="#082D6C"/>
<path d="M42.2082 14.7277C42.8282 15.9784 42.9589 17.1384 42.6029 18.1931C42.2482 19.2477 41.4442 20.0851 40.1922 20.7024C38.8882 21.3491 37.7269 21.4984 36.7096 21.1557C35.6909 20.8117 34.8576 19.9851 34.2109 18.6757L31.0322 12.2411L31.7122 11.9037L32.4029 11.5597L35.5362 17.9024C36.0056 18.8451 36.5816 19.4544 37.2722 19.7251C37.9616 19.9971 38.7362 19.9211 39.5922 19.4957C40.4509 19.0717 40.9789 18.5064 41.1816 17.7904C41.3869 17.0797 41.2522 16.2531 40.7869 15.3117L37.6536 8.96908L38.3336 8.63041L39.0256 8.28774L42.2082 14.7277Z" fill="#082D6C"/>
<path d="M48.8008 17.1262L48.0755 17.2542L47.3488 17.3769L45.4341 6.20354L46.3368 6.04487L47.2421 5.8942L54.3901 14.0169L52.8355 4.93287L53.5635 4.81154L54.2848 4.6822L56.2021 15.8622L55.3795 16.0022L54.5541 16.1422L47.2395 8.00754L48.8008 17.1262Z" fill="#082D6C"/>
<path d="M60.6158 4.68155L61.3798 4.71222L62.1465 4.74689L61.6638 16.0776L60.9025 16.0442L60.1332 16.0082L60.6158 4.68155Z" fill="#082D6C"/>
<path d="M67.4948 5.08908L68.3201 5.29975L69.1495 5.50375L69.9508 15.6864H69.9681L75.4495 7.07575L76.2761 7.28641L77.0975 7.48908L70.3521 17.4931L69.5481 17.2971L68.7508 17.0904L67.4948 5.08908Z" fill="#082D6C"/>
<path d="M76.8932 19.6536L82.4799 9.78429L89.6812 13.8656L89.3492 14.455L89.0172 15.0363L83.1492 11.7176L81.4292 14.7576L86.7879 17.791L86.4545 18.3803L86.1239 18.9656L80.7625 15.927L78.8919 19.235L84.8359 22.6056L84.5039 23.187L84.1719 23.7776L76.8932 19.6536Z" fill="#082D6C"/>
<path d="M92.2799 22.5293L94.9292 25.2266C95.4239 25.7266 95.8959 25.9893 96.3465 26.0066C96.7972 26.0186 97.2639 25.7919 97.7425 25.3186C98.2105 24.8653 98.4292 24.4039 98.4065 23.9453C98.3772 23.4866 98.1025 22.9906 97.5799 22.4546L95.0105 19.8399L92.2799 22.5293ZM94.8532 17.8493L95.3892 18.3906L98.5439 21.6039C99.3892 22.4613 99.8439 23.2999 99.9079 24.1106C99.9745 24.9239 99.6479 25.6866 98.9292 26.3906C98.2185 27.0906 97.4372 27.3973 96.5772 27.3279C96.3639 27.3053 96.1505 27.2706 95.9425 27.2066L96.0319 27.4733C96.2332 28.2439 96.0052 28.9653 95.3572 29.6413L93.9239 31.1373C93.6892 31.3813 93.5465 31.5799 93.4932 31.7426C93.4372 31.8999 93.4519 32.0986 93.5305 32.3319L93.3572 32.5039L92.0319 31.1613C92.0705 31.0666 92.2159 30.8639 92.4639 30.5613C92.7172 30.2559 93.0025 29.9319 93.3279 29.5879L93.9412 28.9359C94.4279 28.4293 94.6679 27.9506 94.6559 27.5146C94.6412 27.0719 94.3759 26.5893 93.8639 26.0653L91.3145 23.4733L87.8412 26.8866L87.3052 26.3453L86.7652 25.7973L94.8532 17.8493Z" fill="#082D6C"/>
<path d="M105.348 37.1061C105.945 36.7021 106.296 36.1954 106.396 35.5754C106.501 34.9567 106.354 34.2754 105.952 33.5421C105.541 32.7847 105.08 32.2887 104.573 32.0634C104.065 31.8301 103.526 31.8714 102.964 32.1807C102.578 32.3887 102.358 32.6754 102.314 33.0407C102.266 33.4021 102.365 34.0314 102.61 34.9154L103.137 36.8727C103.424 37.9141 103.454 38.7594 103.24 39.3874C103.026 40.0234 102.529 40.5527 101.742 40.9781C100.841 41.4727 99.9356 41.5194 99.0343 41.1247C98.1329 40.7274 97.3663 39.9474 96.7289 38.7767C96.0169 37.4794 95.7676 36.2967 95.9783 35.2314C96.1863 34.1887 96.8103 33.3834 97.8516 32.8207L97.9263 32.7794L98.5969 34.0141C97.8889 34.4341 97.4729 34.9981 97.3556 35.7141C97.2343 36.4301 97.4223 37.2341 97.9076 38.1261C98.3583 38.9514 98.8423 39.4994 99.3609 39.7727C99.8783 40.0461 100.416 40.0274 100.969 39.7327C101.445 39.4714 101.725 39.1341 101.801 38.7247C101.877 38.3221 101.784 37.6407 101.526 36.6874L100.997 34.7301C100.726 33.7461 100.678 32.9661 100.841 32.3887C101.009 31.8114 101.42 31.3474 102.074 30.9914C103.022 30.4727 103.956 30.3794 104.866 30.7247C105.777 31.0661 106.534 31.7887 107.134 32.8901C107.744 34.0087 107.95 35.0567 107.753 36.0221C107.557 36.9887 106.98 37.7647 106.022 38.3461L105.348 37.1061Z" fill="#082D6C"/>
<path d="M110.925 42.4921L111.148 43.2214L111.37 43.9588L100.526 47.2668L100.301 46.5401L100.077 45.8041L110.925 42.4921Z" fill="#082D6C"/>
<path d="M111.806 52.9439L111.421 49.1306L112.094 49.0653L112.767 48.9973L113.686 58.1439L113.015 58.2146L112.341 58.2799L111.961 54.4719L102.017 55.4719L101.939 54.7079L101.863 53.9453L111.806 52.9439Z" fill="#082D6C"/>
<path d="M106.214 65.8241L113.607 62.6681L113.465 63.5481L113.325 64.4387L107.378 66.7854H107.373L112.302 70.8721L112.163 71.7454L112.025 72.6241L105.977 67.3414L101.494 66.6227L101.614 65.8734L101.737 65.1147L106.214 65.8241Z" fill="#082D6C"/>
<path d="M359.318 33.2572C359.318 30.1358 356.791 27.6118 353.675 27.6025L353.662 27.5998H347.367V52.3132H342.643V33.2772L342.628 33.2638V33.2572C342.628 30.1358 340.108 27.6118 336.983 27.6025L336.978 27.5998H331.962H330.683H326.163C325.216 27.6025 324.455 28.3758 324.455 29.3278C324.455 30.2825 325.226 31.0598 326.182 31.0598C326.235 31.0598 326.287 31.0478 326.336 31.0412H330.683V92.6278H342.643V58.1385H347.367V92.6278H359.327V33.2772L359.318 33.2638V33.2572Z" fill="#082D6C"/>
<path d="M319.88 37.871L322.248 32.0403H292.349V77.731H292.371V77.7843C292.371 80.2803 294.388 82.3003 296.889 82.3003C296.956 82.3003 297.023 82.2923 297.084 82.2883H321.612V76.4523H305.941V37.871H319.88Z" fill="#082D6C"/>
<path d="M416.349 33.4316H398.472V27.1263H380.685V27.1436C379.729 27.1529 378.965 27.9289 378.965 28.8849C378.965 29.8423 379.741 30.6276 380.701 30.6276C380.754 30.6276 380.805 30.6156 380.857 30.6103H385.116V33.4316H367.248L369.621 39.2983H413.977L416.349 33.4316Z" fill="#082D6C"/>
<path d="M399.738 49.4536C399.738 44.6763 396.212 40.815 391.878 40.815C387.532 40.815 384.006 44.6763 384.006 49.4536C384.006 54.2243 387.532 58.0896 391.878 58.0896C396.212 58.0896 399.738 54.2243 399.738 49.4536ZM391.878 65.0696C381.042 65.0696 372.268 58.071 372.268 49.4536C372.268 40.827 381.042 33.8363 391.878 33.8363C402.705 33.8363 411.484 40.827 411.484 49.4536C411.484 58.071 402.705 65.0696 391.878 65.0696Z" fill="#082D6C"/>
<path d="M449.993 48.8039L446.097 42.8759H437.975V33.3839L437.965 33.3759V33.3705C437.965 30.1932 435.396 27.6252 432.22 27.6199L432.212 27.6025H419.552V27.6079C418.588 27.6199 417.815 28.4065 417.815 29.3692C417.815 30.3372 418.603 31.1292 419.575 31.1292C419.628 31.1292 419.681 31.1225 419.731 31.1105H424.148V67.0972H437.975V48.8039H449.993Z" fill="#082D6C"/>
<path d="M379.029 70.7134H437.975V92.6014H424.119V76.6854H381.617L379.029 70.7134Z" fill="#082D6C"/>
<path d="M455.454 32.1223L457.878 38.0903H504.777V74.925H518.534V32.1223H455.454Z" fill="#082D6C"/>
<path d="M498.991 83.8372V62.6212H482.365V62.6559C482.153 62.6665 481.945 62.7039 481.748 62.7906C481.352 62.9585 481.028 63.2785 480.867 63.6839C480.772 63.9039 480.719 64.1345 480.719 64.3812C480.719 65.3372 481.495 66.1132 482.453 66.1132C482.512 66.1132 482.556 66.1092 482.617 66.0999H485.805V83.8372H476.421V62.6212H459.801V62.6359C458.857 62.6519 458.093 63.4212 458.093 64.3732C458.093 65.3279 458.872 66.1132 459.833 66.1132C459.883 66.1132 459.933 66.0999 459.987 66.0932H463.241V83.8372H450.476L452.913 89.7879H522.261L524.637 83.8372H498.991Z" fill="#082D6C"/>
<path d="M169.853 49.2296C179.071 49.2296 186.551 45.479 186.551 40.8496C186.551 36.2243 179.071 32.475 169.853 32.475C160.625 32.475 153.147 36.2243 153.147 40.8496C153.147 45.479 160.625 49.2296 169.853 49.2296ZM139.888 40.8496C139.888 33.0003 153.303 26.6296 169.853 26.6296C186.395 26.6296 199.813 33.0003 199.813 40.8496C199.813 48.7016 186.395 55.0696 169.853 55.0696C153.303 55.0696 139.888 48.7016 139.888 40.8496Z" fill="#082D6C"/>
<path d="M204.544 63.5235L206.926 57.6648H132.82L135.194 63.5235H204.544Z" fill="#082D6C"/>
<path d="M153.818 81.7786H193.012V81.7653H195.636C195.668 81.7653 195.698 81.7759 195.73 81.7759C198.239 81.7759 200.279 79.7293 200.279 77.2159C200.279 77.1919 200.271 77.1639 200.271 77.1359V66.3813H186.415V66.3839H138.851L141.234 72.2466H186.415V76.6866H142.744V76.6973H139.963V87.4506C139.963 87.4826 139.959 87.5093 139.959 87.5479C139.959 90.0519 141.99 92.0879 144.502 92.0879C144.539 92.0879 144.562 92.0826 144.596 92.0826H153.818V92.0693H200.271L202.647 86.2066H153.818V81.7786Z" fill="#082D6C"/>
<path d="M241.246 52.5684C243.325 47.743 244.729 42.3524 244.931 36.451H257.369L259.746 30.5897H212.999L215.111 36.451H230.59C230.543 39.627 229.621 61.567 212.487 77.2164L216.578 80.631C216.578 80.631 230.431 72.299 238.779 57.5257C242.647 59.6297 245.333 64.607 245.333 64.607C248.349 69.971 247.479 79.8924 247.479 79.8924H261.694C261.022 70.3057 255.057 62.5937 255.057 62.5937C249.755 55.2204 243.035 53.0364 241.246 52.5684Z" fill="#082D6C"/>
<path d="M282.805 33.313V33.2996C282.805 30.1663 280.262 27.6196 277.126 27.617L277.111 27.6023H270.43H269.134H264.598V27.6076C263.639 27.617 262.871 28.393 262.871 29.3476C262.871 30.3103 263.642 31.089 264.613 31.089C264.666 31.089 264.715 31.081 264.767 31.077H269.134V92.6156H282.814V33.3223L282.805 33.313Z" fill="#082D6C"/>
</svg>
