<svg width="411" height="122" viewBox="0 0 411 122" fill="none" xmlns="http://www.w3.org/2000/svg">
<path d="M41.6154 100.713L41.097 101.968L42.8524 102.684L38.9597 112.124L40.421 112.731L44.832 102.044L41.6154 100.713Z" fill="#EAEAEA"/>
<path d="M51.9054 107.623C52.251 106.192 53.4424 105.249 54.5672 105.528C55.6949 105.792 56.3225 107.181 55.9708 108.615C55.6283 110.046 54.4307 110.982 53.303 110.713C52.1812 110.44 51.5537 109.054 51.9054 107.623ZM57.3775 108.954C57.9081 106.768 56.7985 104.622 54.9007 104.161C53.0028 103.706 51.0262 105.095 50.4956 107.284C49.9651 109.467 51.0777 111.607 52.9786 112.068C53.2302 112.131 53.4849 112.159 53.7426 112.159C52.2661 113.999 50.144 115.642 50.144 115.642L51.8781 116.063C56.4013 112.022 57.0895 109.894 57.1592 109.624C57.2472 109.409 57.323 109.182 57.3775 108.954Z" fill="#EAEAEA"/>
<path d="M69.7284 112.267C69.8042 113.74 68.9341 114.977 67.7821 115.041C66.627 115.101 65.6266 113.955 65.5508 112.497C65.4719 111.015 66.342 109.772 67.4941 109.711C68.6522 109.657 69.6496 110.799 69.7284 112.267ZM64.1047 112.57C64.2199 114.807 65.8994 116.545 67.8548 116.441C69.8103 116.332 71.2928 114.434 71.1715 112.188C71.0533 109.948 69.3737 108.217 67.4183 108.317C67.1576 108.329 66.9059 108.377 66.6664 108.456C67.5456 106.267 69.1069 104.081 69.1069 104.081L67.3213 104.178C64.1501 109.35 64.1107 111.579 64.1198 111.87C64.0986 112.091 64.0925 112.321 64.1047 112.57Z" fill="#EAEAEA"/>
<path d="M77.0099 103.358L76.452 102.094L81.6392 99.6928L82.4153 101.357L84.0676 111.529L82.5063 112.256L80.8631 101.572L77.0099 103.358Z" fill="#EAEAEA"/>
<path d="M41.6098 100.71L41.0975 101.956L42.8467 102.681L38.9571 112.118L40.4214 112.728L44.8325 102.038L41.6098 100.71Z" fill="#EAEAEA"/>
<path d="M51.9008 107.614C52.2525 106.18 53.4409 105.243 54.5657 105.522C55.6904 105.792 56.321 107.175 55.9724 108.599C55.6267 110.033 54.4292 110.973 53.3045 110.697C52.1828 110.428 51.5552 109.054 51.9008 107.614ZM57.376 108.948C57.9096 106.759 56.8 104.622 54.9022 104.158C53.0013 103.7 51.0277 105.089 50.4972 107.278C49.9666 109.457 51.0792 111.601 52.9771 112.059C53.2287 112.122 53.4834 112.153 53.7441 112.153C52.2677 113.993 50.1455 115.636 50.1455 115.636L51.8766 116.06C56.4029 112.016 57.088 109.888 57.1577 109.621C57.2487 109.403 57.3184 109.175 57.376 108.948Z" fill="#EAEAEA"/>
<path d="M60.6184 118.678C28.5554 118.678 2.5557 92.6814 2.5557 60.6184C2.5557 28.5523 28.5554 2.55874 60.6184 2.55874C92.6874 2.55874 118.681 28.5523 118.681 60.6184C118.681 92.6814 92.6874 118.678 60.6184 118.678ZM60.6184 0C27.1426 0 0 27.1396 0 60.6184C0 94.0941 27.1426 121.237 60.6184 121.237C94.1002 121.237 121.243 94.0941 121.243 60.6184C121.243 27.1396 94.1002 0 60.6184 0Z" fill="#EAEAEA"/>
<path d="M60.6184 100.706C82.7587 100.706 100.706 82.758 100.706 60.6177C100.706 38.4834 82.7587 20.5329 60.6184 20.5329C38.4811 20.5329 20.5336 38.4834 20.5336 60.6177C20.5336 82.758 38.4811 100.706 60.6184 100.706ZM18.7661 60.6177C18.7661 37.5012 37.5049 18.7624 60.6184 18.7624C83.7379 18.7624 102.48 37.5012 102.48 60.6177C102.48 83.7251 83.7379 102.467 60.6184 102.467C37.5049 102.467 18.7661 83.7251 18.7661 60.6177Z" fill="#EAEAEA"/>
<path d="M35.8972 28.1142L43.9553 35.8056L41.0419 56.4846H57.6343L59.9474 40.0105H68.1784L65.8592 56.4846H81.3602L85.3438 28.1142H35.8972Z" fill="#EAEAEA"/>
<path d="M77.2926 85.4302L80.2 64.7481H64.7021L62.3828 81.2314H54.1549L56.4711 64.7481H39.8848L35.8951 93.1125H85.3447L77.2926 85.4302Z" fill="#EAEAEA"/>
<path d="M30.1907 98.1109C30.603 98.4686 30.8365 98.893 30.882 99.3963C30.9214 99.8935 30.7668 100.354 30.409 100.773C30.0543 101.182 29.6329 101.415 29.1266 101.455C28.6173 101.494 28.1595 101.343 27.7442 100.985C27.3288 100.642 27.0984 100.212 27.059 99.7025C27.0287 99.1962 27.1803 98.7384 27.535 98.3261C27.8867 97.9108 28.3172 97.6804 28.8144 97.6379C29.3146 97.6046 29.7754 97.7592 30.1907 98.1109Z" fill="#EAEAEA"/>
<path d="M91.0831 98.2083C91.5015 97.8506 91.9562 97.696 92.4595 97.7384C92.9567 97.7778 93.3841 98.0022 93.7358 98.4175C94.0936 98.8359 94.2512 99.2936 94.2148 99.7939C94.1754 100.3 93.945 100.728 93.5327 101.088C93.1113 101.44 92.6565 101.595 92.1533 101.555C91.65 101.51 91.2195 101.285 90.8648 100.864C90.5101 100.452 90.3525 99.994 90.3949 99.4937C90.4374 98.9965 90.6678 98.566 91.0831 98.2083Z" fill="#EAEAEA"/>
<path d="M17.7648 72.1993L6.302 74.1971L4.84073 65.8328L5.52589 65.7115L6.20498 65.5963L7.39643 72.4115L10.9283 71.79L9.83996 65.5629L10.5191 65.4417L11.2042 65.3265L12.2896 71.5626L16.1307 70.8835L14.9241 63.9743L15.6092 63.8561L16.2883 63.7379L17.7648 72.1993Z" fill="#EAEAEA"/>
<path d="M12.9124 50.936C14.3403 51.0876 15.4135 51.609 16.132 52.4943C16.8505 53.3856 17.1385 54.5376 16.9869 55.9625C16.8263 57.448 16.323 58.5394 15.465 59.2337C14.6071 59.9279 13.4368 60.1978 11.9453 60.031L4.61771 59.2579L4.70259 58.4818L4.78445 57.6966L11.9998 58.4606C13.0761 58.5758 13.9219 58.406 14.5343 57.9513C15.1467 57.5056 15.5014 56.7962 15.6136 55.817C15.7106 54.8408 15.5105 54.0738 15.0103 53.5068C14.501 52.943 13.7127 52.6004 12.6335 52.4852L5.41807 51.7212L5.50296 50.9451L5.58481 50.1568L12.9124 50.936Z" fill="#EAEAEA"/>
<path d="M18.1647 47.8867L7.29007 43.7364L7.56898 43.0057L7.85396 42.269L17.428 45.9252L19.5289 40.4288L20.1747 40.6804L20.8174 40.926L18.1647 47.8867Z" fill="#EAEAEA"/>
<path d="M14.8901 28.5522L15.3176 27.8974L15.7602 27.2425L22.7209 31.884C23.6729 32.5237 24.2459 33.2513 24.4399 34.079C24.64 34.9036 24.4399 35.7646 23.8517 36.6468C23.2484 37.5533 22.539 38.0868 21.7265 38.2627C20.9171 38.4264 20.0985 38.2051 19.2739 37.6048L18.5978 37.1531L19.4225 35.9222L20.0925 36.3709C20.6048 36.7135 21.0869 36.8499 21.5325 36.7772C21.9812 36.7135 22.3662 36.4467 22.6754 35.9738C22.9907 35.5008 23.0756 35.0097 22.924 34.5155C22.7755 34.0123 22.4117 33.5696 21.8387 33.1877L14.8901 28.5522Z" fill="#EAEAEA"/>
<path d="M19.7056 22.6222L20.2392 22.0553L20.7879 21.4884L29.2008 29.5253L28.6642 30.0923L28.1125 30.6592L19.7056 22.6222Z" fill="#EAEAEA"/>
<path d="M43.3092 15.1127C43.9458 16.3981 44.0792 17.5896 43.7154 18.6689C43.3486 19.7512 42.527 20.6091 41.2385 21.2428C39.9016 21.9097 38.7101 22.0613 37.6672 21.7096C36.6213 21.3549 35.7664 20.5061 35.1024 19.163L31.8403 12.5631L32.5406 12.2144L33.2501 11.8658L36.4636 18.3718C36.9457 19.3358 37.5368 19.9664 38.2463 20.2423C38.9496 20.5212 39.7469 20.4424 40.6261 20.0058C41.5053 19.5723 42.048 18.9902 42.2572 18.2566C42.4664 17.5259 42.3299 16.6801 41.8509 15.713L38.6343 9.20701L39.3316 8.85836L40.044 8.50366L43.3092 15.1127Z" fill="#EAEAEA"/>
<path d="M50.0743 17.5711L49.3315 17.7075L48.5827 17.8318L46.6212 6.36599L47.5458 6.20228L48.4735 6.0507L55.8102 14.3848L54.2125 5.0654L54.9583 4.93807L55.7011 4.80468L57.6686 16.2796L56.8228 16.4221L55.9769 16.5615L48.4735 8.21835L50.0743 17.5711Z" fill="#EAEAEA"/>
<path d="M62.198 4.80524L62.9801 4.83556L63.7714 4.87194L63.2712 16.4984L62.492 16.4651L61.7008 16.4257L62.198 4.80524Z" fill="#EAEAEA"/>
<path d="M69.2544 5.2242L70.1002 5.43945L70.9521 5.64863L71.7767 16.0988H71.7919L77.4156 7.26148L78.2645 7.47976L79.1073 7.68592L72.186 17.9512L71.3614 17.7511L70.5459 17.5389L69.2544 5.2242Z" fill="#EAEAEA"/>
<path d="M78.8988 20.1677L84.6347 10.0419L92.0229 14.2317L91.6803 14.8319L91.3408 15.4292L85.3199 12.0246L83.5524 15.1442L89.0519 18.2577L88.7093 18.861L88.3698 19.4643L82.8703 16.3447L80.9482 19.7372L87.0479 23.1994L86.7084 23.7936L86.3689 24.3999L78.8988 20.1677Z" fill="#EAEAEA"/>
<path d="M94.6862 23.1165L97.4056 25.8875C97.9089 26.3998 98.397 26.6666 98.8578 26.6848C99.3217 26.6999 99.8037 26.4665 100.295 25.9814C100.771 25.5176 100.998 25.0416 100.974 24.5717C100.944 24.1018 100.662 23.5925 100.125 23.0437L97.4875 20.3577L94.6862 23.1165ZM97.3268 18.3174L97.8756 18.8691L101.116 22.1676C101.983 23.0498 102.45 23.9108 102.514 24.7415C102.581 25.5752 102.25 26.3574 101.511 27.0819C100.78 27.7974 99.9765 28.1127 99.0943 28.043C98.876 28.0187 98.6577 27.9823 98.4425 27.9156L98.5365 28.1885C98.7426 28.9828 98.5092 29.7256 97.8452 30.4168L96.3718 31.9508C96.1323 32.1994 95.9838 32.4025 95.9322 32.5723C95.8746 32.7299 95.8898 32.9391 95.9686 33.1756L95.7928 33.3514L94.4346 31.9781C94.471 31.878 94.6195 31.6719 94.8772 31.3596C95.1379 31.0443 95.429 30.7139 95.7594 30.3592L96.3931 29.6922C96.8903 29.1738 97.1358 28.6827 97.1267 28.234C97.1085 27.7792 96.8357 27.2851 96.3112 26.7454L93.6949 24.0897L90.1327 27.5882L89.5809 27.0334L89.0261 26.4695L97.3268 18.3174Z" fill="#EAEAEA"/>
<path d="M108.095 38.075C108.707 37.6626 109.068 37.1412 109.171 36.5045C109.277 35.8679 109.126 35.1736 108.716 34.4188C108.292 33.6396 107.822 33.1333 107.3 32.8999C106.776 32.6604 106.224 32.7059 105.651 33.0211C105.254 33.2364 105.027 33.5274 104.984 33.9034C104.933 34.2763 105.036 34.919 105.284 35.8285L105.824 37.8354C106.121 38.9056 106.151 39.7727 105.933 40.4154C105.712 41.0672 105.203 41.6099 104.396 42.0495C103.474 42.5588 102.541 42.6043 101.619 42.198C100.694 41.7918 99.9032 40.9914 99.2514 39.7909C98.5207 38.46 98.2661 37.2443 98.4783 36.1498C98.6935 35.0827 99.3362 34.255 100.403 33.679L100.482 33.6366L101.17 34.9038C100.443 35.3343 100.012 35.9134 99.8941 36.647C99.7698 37.3807 99.9638 38.2053 100.461 39.1209C100.925 39.9697 101.419 40.5306 101.953 40.8126C102.483 41.0945 103.035 41.0733 103.605 40.7701C104.09 40.5003 104.375 40.1577 104.457 39.7363C104.533 39.321 104.436 38.6237 104.172 37.6475L103.632 35.6375C103.353 34.6249 103.302 33.8276 103.474 33.2364C103.641 32.6422 104.066 32.1632 104.739 31.7994C105.709 31.2688 106.667 31.1749 107.598 31.5296C108.537 31.8782 109.313 32.6179 109.926 33.7487C110.556 34.8947 110.763 35.974 110.566 36.9623C110.365 37.9537 109.768 38.754 108.786 39.3483L108.095 38.075Z" fill="#EAEAEA"/>
<path d="M113.816 43.6028L114.046 44.3546L114.274 45.1065L103.148 48.502L102.917 47.7562L102.687 47.0013L113.816 43.6028Z" fill="#EAEAEA"/>
<path d="M114.722 54.3246L114.325 50.4137L115.013 50.347L115.711 50.2773L116.654 59.6603L115.959 59.7361L115.271 59.7998L114.883 55.892L104.678 56.9197L104.6 56.1375L104.518 55.3523L114.722 54.3246Z" fill="#EAEAEA"/>
<path d="M108.986 67.5393L116.568 64.3045L116.426 65.2049L116.28 66.1204L110.178 68.5276H110.175L115.234 72.7234L115.089 73.6178L114.949 74.5182L108.741 69.0976L104.141 68.3609L104.263 67.5938L104.39 66.8147L108.986 67.5393Z" fill="#EAEAEA"/>
<path d="M293.929 23.5934C293.929 21.4197 292.17 19.6644 289.999 19.6583L289.996 19.6553H285.613V36.857H282.329V23.6086L282.314 23.5965V23.5934C282.314 21.4197 280.559 19.6644 278.385 19.6583L274.89 19.6553H273.998H270.854C270.197 19.6583 269.66 20.1949 269.66 20.8589C269.66 21.5228 270.2 22.0655 270.87 22.0655C270.903 22.0655 270.939 22.0564 270.973 22.0503H273.998V64.9182H282.329V40.9073H285.613V64.9182H293.935V23.6086L293.929 23.5965V23.5934Z" fill="#EAEAEA"/>
<path d="M266.481 26.8043L268.127 22.7479H247.32V54.5472H247.336V54.5836C247.336 56.3207 248.733 57.7274 250.479 57.7274C250.525 57.7274 250.573 57.7214 250.616 57.7183H267.687V53.6559H256.779V26.8043H266.481Z" fill="#EAEAEA"/>
<path d="M333.622 23.7148H321.18V19.3249H308.804V19.3401C308.14 19.3462 307.601 19.8828 307.601 20.5497C307.601 21.2137 308.146 21.7594 308.813 21.7594C308.85 21.7594 308.886 21.7533 308.923 21.7503H311.885V23.7148H299.452L301.098 27.7985H331.969L333.622 23.7148Z" fill="#EAEAEA"/>
<path d="M322.063 34.8643C322.063 31.5415 319.611 28.8524 316.588 28.8524C313.566 28.8524 311.113 31.5415 311.113 34.8643C311.113 38.187 313.566 40.8761 316.588 40.8761C319.611 40.8761 322.063 38.187 322.063 34.8643ZM316.588 45.7358C309.051 45.7358 302.943 40.8639 302.943 34.8643C302.943 28.8615 309.051 23.9957 316.588 23.9957C324.134 23.9957 330.237 28.8615 330.237 34.8643C330.237 40.8639 324.134 45.7358 316.588 45.7358Z" fill="#EAEAEA"/>
<path d="M357.043 34.4144L354.33 30.2883H348.676V23.6792L348.67 23.6762C348.67 21.4631 346.881 19.6744 344.671 19.6683V19.6562H335.855C335.185 19.6653 334.645 20.2171 334.645 20.8871C334.645 21.5601 335.194 22.1119 335.87 22.1119C335.906 22.1119 335.943 22.1088 335.979 22.0967H339.05V47.1444H348.676V34.4144H357.043Z" fill="#EAEAEA"/>
<path d="M307.648 49.6616H348.676V64.8958H339.035V53.818H309.446L307.648 49.6616Z" fill="#EAEAEA"/>
<path d="M360.845 22.8028L362.53 26.9592H395.172V52.5951H404.743V22.8028H360.845Z" fill="#EAEAEA"/>
<path d="M391.14 58.7996V44.0293H379.568V44.0536C379.423 44.0627 379.277 44.0869 379.141 44.1475C378.868 44.2658 378.644 44.4871 378.529 44.7721C378.459 44.9237 378.432 45.0813 378.432 45.2571C378.432 45.918 378.965 46.4607 379.635 46.4607C379.675 46.4607 379.705 46.4607 379.75 46.4516H381.97V58.7996H375.436V44.0293H363.873V44.0384C363.21 44.0505 362.679 44.5871 362.679 45.2511C362.679 45.915 363.222 46.4607 363.892 46.4607C363.919 46.4607 363.961 46.4516 363.998 46.4486H366.265V58.7996H357.377L359.074 62.9379H407.345L408.997 58.7996H391.14Z" fill="#EAEAEA"/>
<path d="M162.059 34.7106C168.475 34.7106 173.68 32.0973 173.68 28.8777C173.68 25.6581 168.475 23.0478 162.059 23.0478C155.638 23.0478 150.427 25.6581 150.427 28.8777C150.427 32.0973 155.638 34.7106 162.059 34.7106ZM141.202 28.8777C141.202 23.4146 150.539 18.9793 162.059 18.9793C173.574 18.9793 182.911 23.4146 182.911 28.8777C182.911 34.3408 173.574 38.7761 162.059 38.7761C150.539 38.7761 141.202 34.3408 141.202 28.8777Z" fill="#EAEAEA"/>
<path d="M186.206 44.6581L187.862 40.5805H136.284L137.939 44.6581H186.206Z" fill="#EAEAEA"/>
<path d="M150.904 57.365H178.18V57.3559H180.008C180.026 57.3559 180.044 57.365 180.075 57.365C181.815 57.365 183.237 55.9371 183.237 54.1878C183.237 54.1697 183.234 54.1515 183.234 54.1333V46.645H173.587L140.481 46.6481L142.139 50.7287H173.587V53.818H143.194V53.8271H141.254V61.3123C141.254 61.3365 141.248 61.3517 141.248 61.382C141.248 63.1222 142.667 64.541 144.416 64.541C144.434 64.541 144.458 64.535 144.48 64.535H150.904V64.5259H183.234L184.889 60.4452H150.904V57.365Z" fill="#EAEAEA"/>
<path d="M211.751 37.0346C213.2 33.6755 214.173 29.9223 214.316 25.8144H222.968L224.629 21.7368H192.093L193.558 25.8144H204.329C204.302 28.0275 203.656 43.2951 191.73 54.1879L194.579 56.5647C194.579 56.5647 204.22 50.7681 210.038 40.4847C212.724 41.949 214.594 45.4112 214.594 45.4112C216.698 49.1462 216.086 56.0493 216.086 56.0493H225.981C225.518 49.3766 221.361 44.0136 221.361 44.0136C217.678 38.8779 212.991 37.359 211.751 37.0346Z" fill="#EAEAEA"/>
<path d="M240.679 23.6288V23.6227C240.679 21.4399 238.902 19.6694 236.72 19.6664L236.717 19.6573H232.063H231.163H228.001V19.6603C227.334 19.6664 226.803 20.2091 226.803 20.87C226.803 21.543 227.337 22.0857 228.016 22.0857C228.049 22.0857 228.088 22.0796 228.125 22.0766H231.163V64.9081H240.682V23.6379L240.679 23.6288Z" fill="#EAEAEA"/>
<path d="M141.232 75.7876H154.692V78.692H144.203V86.3773H154.186V89.2422H144.203V97.4459H154.935V100.45H141.232V75.7876Z" fill="#EAEAEA"/>
<path d="M162.868 75.7875V91.058C162.868 93.6895 163.374 94.7809 163.814 95.4964C165.157 97.5458 167.236 97.9248 168.725 97.9248C174.519 97.9248 174.519 92.6982 174.519 90.9186V75.7875H177.405V90.9883C177.405 92.3223 177.371 95.0871 175.655 97.5458C173.542 100.587 170.265 100.963 168.725 100.963C166.703 100.963 163.132 100.314 161.143 97.0335C160.488 95.939 159.894 94.5081 159.894 90.8185V75.7875H162.868Z" fill="#EAEAEA"/>
<path d="M183.015 75.7876H185.965V97.4095H195.954V100.45H183.015V75.7876Z" fill="#EAEAEA"/>
<path d="M200.551 93.7555C200.581 94.6074 200.581 95.6685 201.026 96.4537C201.384 97.1024 202.276 97.9574 203.788 97.9574C205.016 97.9574 206.141 97.3753 206.768 96.2142C207.272 95.2258 207.272 93.6494 207.272 92.9005V75.7867H210.243V93.8222C210.243 98.3666 207.126 100.828 203.588 100.828C202.454 100.828 199.962 100.519 198.471 98.2605C197.458 96.6932 197.404 94.7438 197.404 93.7555H200.551Z" fill="#EAEAEA"/>
<path d="M215.921 75.788H218.889V100.451H215.921V75.788Z" fill="#EAEAEA"/>
<path d="M235.566 75.7875V91.058C235.566 93.6895 236.075 94.7809 236.521 95.4964C237.855 97.5458 239.934 97.9248 241.423 97.9248C247.219 97.9248 247.219 92.6982 247.219 90.9186V75.7875H250.103V90.9883C250.103 92.3223 250.072 95.0871 248.347 97.5458C246.243 100.587 242.963 100.963 241.423 100.963C239.401 100.963 235.839 100.314 233.844 97.0335C233.192 95.939 232.595 94.5081 232.595 90.8185V75.7875H235.566Z" fill="#EAEAEA"/>
<path d="M255.778 75.7876H259.904L270.46 96.1787V75.7876H273.195V100.45H269.39L258.482 79.5105V100.45H255.778V75.7876Z" fill="#EAEAEA"/>
<path d="M278.692 75.788H281.66V100.451H278.692V75.788Z" fill="#EAEAEA"/>
<path d="M295.664 100.451H292.392L284.756 75.7881H288.054L294.148 96.8613L300.572 75.7881H303.57L295.664 100.451Z" fill="#EAEAEA"/>
<path d="M306.422 75.7876H319.886V78.692H309.39V86.3773H319.38V89.2422H309.39V97.4459H320.129V100.45H306.422V75.7876Z" fill="#EAEAEA"/>
<path d="M327.763 86.412H332.459C332.786 86.412 334.481 86.412 335.281 85.8632C335.7 85.5904 336.742 84.7021 336.742 82.6557C336.742 78.6569 333.647 78.6569 332.459 78.6569H327.763V86.412ZM324.88 75.789H332.547C333.647 75.789 335.909 75.789 337.482 76.9471C339.089 78.1112 339.865 79.9909 339.865 81.9706C339.865 83.7138 339.298 85.2478 338.337 86.3422C337.428 87.4003 336.47 87.7429 335.815 87.949C337.87 88.5614 338.789 89.6225 339.089 92.6966C339.389 95.5979 339.589 97.7171 340.429 100.452H337.243C336.767 98.8085 336.47 95.8011 336.267 93.9275C335.909 90.338 335.16 89.3163 331.564 89.3163H327.82V100.452H324.88V75.789Z" fill="#EAEAEA"/>
<path d="M346.9 93.2403C346.964 94.9501 347.139 98.1304 352.075 98.1304C356.532 98.1304 357.102 94.9501 357.102 93.7223C357.102 90.9544 355.167 90.4087 352.163 89.5538C348.892 88.6291 347.434 88.2228 346.333 87.3649C344.584 86.0006 344.105 84.1543 344.105 82.5172C344.105 77.4968 348.237 75.3079 352.281 75.3079C353.712 75.3079 356.592 75.5838 358.317 77.7333C359.506 79.237 359.569 80.9104 359.627 81.9352H356.532C356.389 78.861 354.124 78.1759 352.014 78.1759C349.043 78.1759 347.258 79.716 347.258 82.1747C347.258 84.3605 348.504 85.1124 351.126 85.8309C356.244 87.3346 356.804 87.468 358.05 88.426C360.042 89.9267 360.188 92.3217 360.188 93.3464C360.188 97.715 357.217 101.032 351.714 101.032C350.083 101.032 346.754 100.722 345.057 98.2304C343.838 96.4205 343.811 94.4378 343.811 93.2403H346.9Z" fill="#EAEAEA"/>
<path d="M364.582 75.788H367.553V100.451H364.582V75.788Z" fill="#EAEAEA"/>
<path d="M378.055 100.451V78.6925H370.857V75.7881H388.193V78.6925H380.995V100.451H378.055Z" fill="#EAEAEA"/>
<path d="M396.982 90.7478L388.602 75.7864H392.286L398.616 87.8798L405.04 75.7864H408.369L399.989 90.9175V100.452H396.982V90.7478Z" fill="#EAEAEA"/>
<path d="M143.085 75.7876H156.546V78.692H146.056V86.3773H156.039V89.2422H146.056V97.4459H156.788V100.45H143.085V75.7876Z" fill="#EAEAEA"/>
<path d="M164.721 75.7875V91.058C164.721 93.6895 165.228 94.7809 165.667 95.4964C167.01 97.5458 169.09 97.9248 170.581 97.9248C176.372 97.9248 176.372 92.6982 176.372 90.9186V75.7875H179.258V90.9883C179.258 92.3223 179.225 95.0871 177.509 97.5458C175.396 100.587 172.119 100.963 170.581 100.963C168.556 100.963 164.985 100.314 162.996 97.0335C162.341 95.939 161.75 94.5081 161.75 90.8185V75.7875H164.721Z" fill="#EAEAEA"/>
<path d="M184.868 75.7876H187.818V97.4095H197.807V100.45H184.868V75.7876Z" fill="#EAEAEA"/>
<path d="M202.404 93.7555C202.434 94.6074 202.434 95.6685 202.88 96.4537C203.238 97.1024 204.129 97.9574 205.642 97.9574C206.87 97.9574 207.995 97.3753 208.622 96.2142C209.125 95.2258 209.125 93.6494 209.125 92.9005V75.7867H212.096V93.8222C212.096 98.3666 208.983 100.828 205.442 100.828C204.308 100.828 201.816 100.519 200.324 98.2605C199.312 96.6932 199.257 94.7438 199.257 93.7555H202.404Z" fill="#EAEAEA"/>
<path d="M217.777 75.788H220.748V100.451H217.777V75.788Z" fill="#EAEAEA"/>
<path d="M237.419 75.7875V91.058C237.419 93.6895 237.929 94.7809 238.374 95.4964C239.708 97.5458 241.788 97.9248 243.277 97.9248C249.073 97.9248 249.073 92.6982 249.073 90.9186V75.7875H251.956V90.9883C251.956 92.3223 251.926 95.0871 250.201 97.5458C248.097 100.587 244.82 100.963 243.277 100.963C241.254 100.963 237.692 100.314 235.697 97.0335C235.046 95.939 234.448 94.5081 234.448 90.8185V75.7875H237.419Z" fill="#EAEAEA"/>
<path d="M257.631 75.7876H261.757L272.314 96.1787V75.7876H275.051V100.45H271.243L260.338 79.5105V100.45H257.631V75.7876Z" fill="#EAEAEA"/>
<path d="M280.547 75.788H283.515V100.451H280.547V75.788Z" fill="#EAEAEA"/>
<path d="M297.52 100.451H294.246L286.609 75.7881H289.91L296.001 96.8613L302.425 75.7881H305.423L297.52 100.451Z" fill="#EAEAEA"/>
<path d="M308.276 75.7876H321.742V78.692H311.244V86.3773H321.233V89.2422H311.244V97.4459H321.982V100.45H308.276V75.7876Z" fill="#EAEAEA"/>
<path d="M329.619 86.412H334.315C334.639 86.412 336.334 86.412 337.134 85.8632C337.553 85.5904 338.596 84.7021 338.596 82.6557C338.596 78.6569 335.503 78.6569 334.315 78.6569H329.619V86.412ZM326.733 75.789H334.4C335.503 75.789 337.762 75.789 339.335 76.9471C340.942 78.1112 341.718 79.9909 341.718 81.9706C341.718 83.7138 341.151 85.2478 340.193 86.3422C339.281 87.4003 338.326 87.7429 337.668 87.949C339.724 88.5614 340.642 89.6225 340.942 92.6966C341.242 95.5979 341.443 97.7171 342.282 100.452H339.096C338.62 98.8085 338.326 95.8011 338.12 93.9275C337.762 90.338 337.013 89.3163 333.418 89.3163H329.674V100.452H326.733V75.789Z" fill="#EAEAEA"/>
<path d="M348.756 93.2403C348.817 94.9501 348.993 98.1304 353.928 98.1304C358.388 98.1304 358.955 94.9501 358.955 93.7223C358.955 90.9544 357.021 90.4087 354.016 89.5538C350.745 88.6291 349.29 88.2228 348.186 87.3649C346.437 86.0006 345.958 84.1543 345.958 82.5172C345.958 77.4968 350.093 75.3079 354.135 75.3079C355.566 75.3079 358.446 75.5838 360.171 77.7333C361.359 79.237 361.423 80.9104 361.48 81.9352H358.388C358.243 78.861 355.981 78.1759 353.868 78.1759C350.9 78.1759 349.111 79.716 349.111 82.1747C349.111 84.3605 350.36 85.1124 352.98 85.8309C358.097 87.3346 358.658 87.468 359.904 88.426C361.896 89.9267 362.041 92.3217 362.041 93.3464C362.041 97.715 359.07 101.032 353.571 101.032C351.937 101.032 348.611 100.722 346.91 98.2304C345.691 96.4205 345.664 94.4378 345.664 93.2403H348.756Z" fill="#EAEAEA"/>
<path d="M366.438 75.788H369.409V100.451H366.438V75.788Z" fill="#EAEAEA"/>
<path d="M379.908 100.451V78.6925H372.711V75.7881H390.046V78.6925H382.849V100.451H379.908Z" fill="#EAEAEA"/>
<path d="M398.835 90.7478L390.455 75.7864H394.139L400.469 87.8798L406.893 75.7864H410.222L401.842 90.9175V100.452H398.835V90.7478Z" fill="#EAEAEA"/>
</svg>
