<svg width="119" height="119" viewBox="0 0 119 119" fill="none" xmlns="http://www.w3.org/2000/svg">
<path d="M50.5845 104.885C50.9219 103.492 52.0845 102.576 53.1792 102.841C54.2779 103.103 54.8899 104.455 54.5485 105.855C54.2125 107.245 53.0459 108.16 51.9499 107.897C50.8552 107.631 50.2445 106.279 50.5845 104.885ZM55.9165 106.187C56.4379 104.053 55.3539 101.961 53.5045 101.515C51.6539 101.068 49.7312 102.421 49.2125 104.556C48.6952 106.681 49.7792 108.769 51.6299 109.219C51.8779 109.283 52.1272 109.304 52.3765 109.304C50.9392 111.1 48.8699 112.7 48.8699 112.7L50.5579 113.113C54.9699 109.173 55.6379 107.096 55.7059 106.837C55.7939 106.628 55.8659 106.404 55.9165 106.187Z" fill="#082D6C"/>
<path d="M67.9563 109.411C68.0323 110.849 67.1816 112.055 66.0576 112.117C64.9336 112.175 63.9576 111.058 63.883 109.634C63.807 108.194 64.655 106.982 65.7803 106.923C66.9043 106.867 67.8776 107.979 67.9563 109.411ZM62.4736 109.707C62.5896 111.89 64.227 113.579 66.131 113.482C68.035 113.377 69.483 111.525 69.363 109.335C69.247 107.153 67.6123 105.463 65.7056 105.561C65.4523 105.577 65.2043 105.622 64.971 105.698C65.827 103.563 67.3496 101.434 67.3496 101.434L65.6096 101.529C62.5203 106.569 62.4803 108.741 62.4883 109.023C62.4683 109.241 62.463 109.467 62.4736 109.707Z" fill="#082D6C"/>
<path d="M75.0534 100.728L74.5081 99.4985L79.5654 97.1532L80.3187 98.7785L81.9321 108.695L80.4107 109.4L78.8081 98.9905L75.0534 100.728Z" fill="#082D6C"/>
<path d="M40.552 98.1497L40.052 99.3644L41.7587 100.071L37.9653 109.266L39.3947 109.86L43.692 99.4431L40.552 98.1497Z" fill="#082D6C"/>
<path d="M50.5807 104.879C50.922 103.483 52.0833 102.568 53.1793 102.836C54.274 103.103 54.8887 104.45 54.5487 105.84C54.2127 107.239 53.046 108.155 51.95 107.884C50.8553 107.622 50.2447 106.279 50.5807 104.879ZM55.918 106.179C56.438 104.047 55.3567 101.962 53.5047 101.51C51.654 101.063 49.7313 102.419 49.2127 104.55C48.6953 106.675 49.7793 108.766 51.63 109.212C51.8753 109.272 52.1247 109.299 52.3767 109.299C50.938 111.095 48.87 112.695 48.87 112.695L50.558 113.108C54.97 109.168 55.6367 107.094 55.706 106.831C55.794 106.622 55.8633 106.402 55.918 106.179Z" fill="#082D6C"/>
<path d="M59.0787 115.66C27.828 115.66 2.49066 90.3227 2.49066 59.076C2.49066 27.824 27.828 2.49338 59.0787 2.49338C90.3333 2.49338 115.665 27.824 115.665 59.076C115.665 90.3227 90.3333 115.66 59.0787 115.66ZM59.0787 3.05176e-05C26.452 3.05176e-05 0 26.448 0 59.076C0 91.7027 26.452 118.151 59.0787 118.151C91.7093 118.151 118.16 91.7027 118.16 59.076C118.16 26.448 91.7093 3.05176e-05 59.0787 3.05176e-05Z" fill="#082D6C"/>
<path d="M59.0786 98.1445C80.656 98.1445 98.1493 80.6512 98.1493 59.0752C98.1493 37.5032 80.656 20.0085 59.0786 20.0085C37.5013 20.0085 20.012 37.5032 20.012 59.0752C20.012 80.6512 37.5013 98.1445 59.0786 98.1445ZM18.2866 59.0752C18.2866 36.5459 36.552 18.2845 59.0786 18.2845C81.6106 18.2845 99.8733 36.5459 99.8733 59.0752C99.8733 81.5979 81.6106 99.8592 59.0786 99.8592C36.552 99.8592 18.2866 81.5979 18.2866 59.0752Z" fill="#082D6C"/>
<path d="M34.983 27.3977L42.8364 34.8937L40.0004 55.047H56.1697L58.4257 38.9923H66.4457L64.1857 55.047H79.2924L83.1764 27.3977H34.983Z" fill="#082D6C"/>
<path d="M75.3268 83.2591L78.1628 63.1005H63.0561L60.7961 79.1658H52.7774L55.0361 63.1005H38.8708L34.9814 90.7471H83.1761L75.3268 83.2591Z" fill="#082D6C"/>
<path d="M29.4213 95.6146C29.8279 95.9639 30.0533 96.3772 30.0946 96.8679C30.1346 97.3519 29.9839 97.8012 29.6359 98.2079C29.2893 98.6079 28.8786 98.8372 28.3853 98.8759C27.8933 98.9159 27.4426 98.7639 27.0386 98.4199C26.6346 98.0812 26.4106 97.6612 26.3733 97.1639C26.3386 96.6759 26.4893 96.2266 26.8346 95.8239C27.1773 95.4199 27.5959 95.1959 28.0813 95.1559C28.5679 95.1239 29.0173 95.2706 29.4213 95.6146Z" fill="#082D6C"/>
<path d="M88.767 95.7122C89.175 95.3629 89.619 95.2122 90.107 95.2535C90.5963 95.2909 91.0096 95.5122 91.355 95.9135C91.7016 96.3215 91.8536 96.7682 91.819 97.2589C91.7816 97.7509 91.559 98.1669 91.155 98.5162C90.747 98.8589 90.3016 99.0109 89.8096 98.9709C89.3203 98.9295 88.9016 98.7082 88.5563 98.2975C88.2096 97.8962 88.0563 97.4522 88.0976 96.9615C88.1376 96.4802 88.3643 96.0589 88.767 95.7122Z" fill="#082D6C"/>
<path d="M17.3124 70.362L6.14177 72.314L4.71777 64.1606L5.38577 64.0433L6.04844 63.9286L7.20711 70.5713L10.6498 69.9646L9.58977 63.8966L10.2524 63.7793L10.9164 63.666L11.9778 69.7393L15.7204 69.0806L14.5458 62.3486L15.2098 62.2326L15.8724 62.1166L17.3124 70.362Z" fill="#082D6C"/>
<path d="M12.5827 49.6379C13.9733 49.7872 15.02 50.2952 15.7213 51.1566C16.4213 52.0259 16.7 53.1486 16.5547 54.5392C16.4 55.9846 15.908 57.0499 15.0733 57.7259C14.236 58.4006 13.096 58.6632 11.6427 58.5059L4.49866 57.7486L4.58132 56.9926L4.66399 56.2286L11.6947 56.9739C12.744 57.0832 13.5667 56.9206 14.1653 56.4779C14.76 56.0432 15.1093 55.3486 15.216 54.3992C15.3133 53.4446 15.116 52.6952 14.628 52.1472C14.1307 51.5939 13.364 51.2632 12.312 51.1512L5.27999 50.4059L5.35999 49.6486L5.44266 48.8792L12.5827 49.6379Z" fill="#082D6C"/>
<path d="M17.7017 46.6666L7.10437 42.6266L7.37637 41.9093L7.65104 41.1946L16.9844 44.7573L19.0297 39.4L19.6617 39.644L20.2884 39.8826L17.7017 46.6666Z" fill="#082D6C"/>
<path d="M14.5104 27.8236L14.929 27.1876L15.3597 26.549L22.1437 31.0743C23.0717 31.6956 23.6304 32.4063 23.821 33.2116C24.013 34.0143 23.821 34.853 23.245 35.7143C22.657 36.5996 21.9677 37.117 21.1757 37.2863C20.3837 37.4503 19.5904 37.2343 18.785 36.6463L18.1264 36.209L18.9277 35.009L19.581 35.4463C20.081 35.7783 20.5504 35.9116 20.9864 35.841C21.4224 35.7783 21.797 35.517 22.0984 35.057C22.4064 34.5956 22.489 34.1196 22.3424 33.6343C22.1944 33.145 21.8437 32.7156 21.2837 32.3423L14.5104 27.8236Z" fill="#082D6C"/>
<path d="M19.2043 22.0474L19.727 21.4941L20.2603 20.9407L28.4577 28.7727L27.9337 29.3247L27.399 29.8807L19.2043 22.0474Z" fill="#082D6C"/>
<path d="M42.2082 14.7278C42.8282 15.9785 42.9589 17.1385 42.6029 18.1932C42.2482 19.2478 41.4442 20.0852 40.1922 20.7025C38.8882 21.3492 37.7269 21.4985 36.7096 21.1558C35.6909 20.8118 34.8576 19.9852 34.2109 18.6758L31.0322 12.2412L31.7122 11.9038L32.4029 11.5598L35.5362 17.9025C36.0056 18.8452 36.5816 19.4545 37.2722 19.7252C37.9616 19.9972 38.7362 19.9212 39.5922 19.4958C40.4509 19.0718 40.9789 18.5065 41.1816 17.7905C41.3869 17.0798 41.2522 16.2532 40.7869 15.3118L37.6536 8.96916L38.3336 8.63049L39.0256 8.28783L42.2082 14.7278Z" fill="#082D6C"/>
<path d="M48.8007 17.1262L48.0754 17.2542L47.3487 17.3768L45.4341 6.2035L46.3367 6.04483L47.2421 5.89417L54.3901 14.0168L52.8354 4.93283L53.5634 4.8115L54.2847 4.68217L56.2021 15.8622L55.3794 16.0022L54.5541 16.1422L47.2394 8.0075L48.8007 17.1262Z" fill="#082D6C"/>
<path d="M60.6158 4.68151L61.3798 4.71218L62.1465 4.74685L61.6638 16.0775L60.9025 16.0442L60.1332 16.0082L60.6158 4.68151Z" fill="#082D6C"/>
<path d="M67.4949 5.08904L68.3202 5.29971L69.1495 5.50371L69.9509 15.6864H69.9682L75.4495 7.07571L76.2762 7.28638L77.0975 7.48904L70.3522 17.493L69.5482 17.297L68.7509 17.0904L67.4949 5.08904Z" fill="#082D6C"/>
<path d="M76.8932 19.6536L82.4799 9.78426L89.6812 13.8656L89.3492 14.4549L89.0172 15.0363L83.1492 11.7176L81.4292 14.7576L86.7879 17.7909L86.4545 18.3803L86.1239 18.9656L80.7625 15.9269L78.8919 19.2349L84.8359 22.6056L84.5039 23.1869L84.1719 23.7776L76.8932 19.6536Z" fill="#082D6C"/>
<path d="M92.2798 22.5294L94.9291 25.2267C95.4238 25.7267 95.8958 25.9894 96.3465 26.0067C96.7971 26.0187 97.2638 25.792 97.7425 25.3187C98.2105 24.8654 98.4291 24.404 98.4065 23.9454C98.3771 23.4867 98.1025 22.9907 97.5798 22.4547L95.0105 19.84L92.2798 22.5294ZM94.8531 17.8494L95.3891 18.3907L98.5438 21.604C99.3891 22.4614 99.8438 23.3 99.9078 24.1107C99.9745 24.924 99.6478 25.6867 98.9291 26.3907C98.2185 27.0907 97.4371 27.3974 96.5771 27.328C96.3638 27.3054 96.1505 27.2707 95.9425 27.2067L96.0318 27.4734C96.2331 28.244 96.0051 28.9654 95.3571 29.6414L93.9238 31.1374C93.6891 31.3814 93.5465 31.58 93.4931 31.7427C93.4371 31.9 93.4518 32.0987 93.5305 32.332L93.3571 32.504L92.0318 31.1614C92.0705 31.0667 92.2158 30.864 92.4638 30.5614C92.7171 30.256 93.0025 29.932 93.3278 29.588L93.9411 28.936C94.4278 28.4294 94.6678 27.9507 94.6558 27.5147C94.6411 27.072 94.3758 26.5894 93.8638 26.0654L91.3145 23.4734L87.8411 26.8867L87.3051 26.3454L86.7651 25.7974L94.8531 17.8494Z" fill="#082D6C"/>
<path d="M105.348 37.106C105.945 36.702 106.296 36.1954 106.396 35.5754C106.501 34.9567 106.354 34.2754 105.952 33.542C105.541 32.7847 105.08 32.2887 104.573 32.0634C104.065 31.83 103.526 31.8714 102.964 32.1807C102.578 32.3887 102.358 32.6754 102.314 33.0407C102.266 33.402 102.365 34.0314 102.61 34.9154L103.137 36.8727C103.424 37.914 103.454 38.7594 103.24 39.3874C103.026 40.0234 102.529 40.5527 101.742 40.978C100.841 41.4727 99.9357 41.5194 99.0343 41.1247C98.133 40.7274 97.3663 39.9474 96.729 38.7767C96.017 37.4794 95.7677 36.2967 95.9783 35.2314C96.1863 34.1887 96.8103 33.3834 97.8517 32.8207L97.9263 32.7794L98.597 34.014C97.889 34.434 97.473 34.998 97.3557 35.714C97.2343 36.43 97.4223 37.234 97.9077 38.126C98.3583 38.9514 98.8423 39.4994 99.361 39.7727C99.8783 40.046 100.416 40.0274 100.969 39.7327C101.445 39.4714 101.725 39.134 101.801 38.7247C101.877 38.322 101.784 37.6407 101.526 36.6874L100.997 34.73C100.726 33.746 100.678 32.966 100.841 32.3887C101.009 31.8114 101.42 31.3474 102.074 30.9914C103.022 30.4727 103.956 30.3794 104.866 30.7247C105.777 31.066 106.534 31.7887 107.134 32.89C107.744 34.0087 107.95 35.0567 107.753 36.022C107.557 36.9887 106.98 37.7647 106.022 38.346L105.348 37.106Z" fill="#082D6C"/>
<path d="M110.925 42.4921L111.148 43.2214L111.37 43.9587L100.526 47.2667L100.301 46.5401L100.077 45.8041L110.925 42.4921Z" fill="#082D6C"/>
<path d="M111.806 52.9439L111.421 49.1306L112.094 49.0652L112.767 48.9972L113.686 58.1439L113.015 58.2146L112.341 58.2799L111.961 54.4719L102.017 55.4719L101.939 54.7079L101.863 53.9452L111.806 52.9439Z" fill="#082D6C"/>
<path d="M106.214 65.824L113.607 62.668L113.465 63.548L113.325 64.4387L107.378 66.7854H107.373L112.302 70.872L112.163 71.7454L112.025 72.624L105.977 67.3414L101.494 66.6227L101.614 65.8734L101.737 65.1147L106.214 65.824Z" fill="#082D6C"/>
</svg>
