<svg width="121" height="121" viewBox="0 0 121 121" fill="none" xmlns="http://www.w3.org/2000/svg">
<path fill-rule="evenodd" clip-rule="evenodd" d="M121 15.125V75.625C121 79.6364 119.406 83.4835 116.57 86.32C113.733 89.1565 109.886 90.75 105.875 90.75H68.0625L30.25 121V90.75H15.125C11.1136 90.75 7.2665 89.1565 4.43001 86.32C1.59352 83.4835 0 79.6364 0 75.625V15.125C0 11.1136 1.59352 7.2665 4.43001 4.43001C7.2665 1.59352 11.1136 0 15.125 0H105.875C109.886 0 113.733 1.59352 116.57 4.43001C119.406 7.2665 121 11.1136 121 15.125ZM37.8125 37.8125H22.6875V52.9375H37.8125V37.8125ZM52.9375 37.8125H68.0625V52.9375H52.9375V37.8125ZM98.3125 37.8125H83.1875V52.9375H98.3125V37.8125Z" fill="#072C6C"/>
</svg>
